<svg width="38" height="39" viewBox="0 0 38 39" fill="none" xmlns="http://www.w3.org/2000/svg">
<path d="M19 9.43063C20.8367 9.43063 22.325 10.9331 22.325 12.7873C22.325 14.6415 20.8367 16.144 19 16.144C17.1633 16.144 15.675 14.6415 15.675 12.7873C15.675 10.9331 17.1633 9.43063 19 9.43063ZM19 23.8163C23.7025 23.8163 28.6583 26.15 28.6583 27.173V28.9313H9.34168V27.173C9.34168 26.15 14.2975 23.8163 19 23.8163ZM19 6.39365C15.5008 6.39365 12.6667 9.25481 12.6667 12.7873C12.6667 16.3198 15.5008 19.1809 19 19.1809C22.4992 19.1809 25.3333 16.3198 25.3333 12.7873C25.3333 9.25481 22.4992 6.39365 19 6.39365ZM19 20.7794C14.7725 20.7794 6.33334 22.9212 6.33334 27.173V31.9683H31.6667V27.173C31.6667 22.9212 23.2275 20.7794 19 20.7794Z" fill="white"/>
</svg>
