<svg width="38" height="39" viewBox="0 0 38 39" fill="none" xmlns="http://www.w3.org/2000/svg">
<path d="M22.1667 9.87618V6.67935H15.8333V9.87618H22.1667ZM6.33332 13.073V30.6555H31.6667V13.073H6.33332ZM31.6667 9.87618C33.4242 9.87618 34.8333 11.2988 34.8333 13.073V30.6555C34.8333 32.4298 33.4242 33.8524 31.6667 33.8524H6.33332C4.57582 33.8524 3.16666 32.4298 3.16666 30.6555L3.18249 13.073C3.18249 11.2988 4.57582 9.87618 6.33332 9.87618H12.6667V6.67935C12.6667 4.90512 14.0758 3.48253 15.8333 3.48253H22.1667C23.9242 3.48253 25.3333 4.90512 25.3333 6.67935V9.87618H31.6667Z" fill="white"/>
</svg>
