<svg width="38" height="39" viewBox="0 0 38 39" fill="none" xmlns="http://www.w3.org/2000/svg">
<path d="M30.0833 8.27776V14.6714H6.33332V8.27776H30.0833ZM30.0833 24.2619V30.6555H6.33332V24.2619H30.0833ZM31.6667 5.08093H4.74999C3.87916 5.08093 3.16666 5.80022 3.16666 6.67935V16.2698C3.16666 17.1489 3.87916 17.8682 4.74999 17.8682H31.6667C32.5375 17.8682 33.25 17.1489 33.25 16.2698V6.67935C33.25 5.80022 32.5375 5.08093 31.6667 5.08093ZM31.6667 21.0651H4.74999C3.87916 21.0651 3.16666 21.7843 3.16666 22.6635V32.2539C3.16666 33.1331 3.87916 33.8524 4.74999 33.8524H31.6667C32.5375 33.8524 33.25 33.1331 33.25 32.2539V22.6635C33.25 21.7843 32.5375 21.0651 31.6667 21.0651Z" fill="white"/>
</svg>
